<?xml version="1.0" encoding="UTF-8" standalone="no"?>
<!-- Generator: Adobe Illustrator 12.0.1, SVG Export Plug-In . SVG Version: 6.00 Build 51448)  -->
<svg
   xmlns:dc="http://purl.org/dc/elements/1.1/"
   xmlns:cc="http://web.resource.org/cc/"
   xmlns:rdf="http://www.w3.org/1999/02/22-rdf-syntax-ns#"
   xmlns:svg="http://www.w3.org/2000/svg"
   xmlns="http://www.w3.org/2000/svg"
   xmlns:sodipodi="http://sodipodi.sourceforge.net/DTD/sodipodi-0.dtd"
   xmlns:inkscape="http://www.inkscape.org/namespaces/inkscape"
   version="1.1"
   id="Layer_1"
   width="281.563"
   height="99.721"
   viewBox="0 0 281.563 99.721"
   style="overflow:visible;enable-background:new 0 0 281.563 99.721;"
   xml:space="preserve"
   sodipodi:version="0.32"
   inkscape:version="0.45.1"
   sodipodi:docname="L-Tyrosin phys.svg"
   inkscape:output_extension="org.inkscape.output.svg.inkscape"
   sodipodi:docbase="C:\"><metadata
   id="metadata60"><rdf:RDF><cc:Work
       rdf:about=""><dc:format>image/svg+xml</dc:format><dc:type
         rdf:resource="http://purl.org/dc/dcmitype/StillImage" /></cc:Work></rdf:RDF></metadata><defs
   id="defs58" /><sodipodi:namedview
   inkscape:window-height="579"
   inkscape:window-width="801"
   inkscape:pageshadow="2"
   inkscape:pageopacity="0.0"
   guidetolerance="10.0"
   gridtolerance="10.0"
   objecttolerance="10.0"
   borderopacity="1.0"
   bordercolor="#666666"
   pagecolor="#ffffff"
   id="base"
   inkscape:zoom="2.5464995"
   inkscape:cx="140.78149"
   inkscape:cy="49.8605"
   inkscape:window-x="110"
   inkscape:window-y="110"
   inkscape:current-layer="Layer_1" />
<g
   id="g3"
   transform="matrix(0.95,0,0,0.95,7.05595,2.49305)">
	<path
   d="M 189.591,79.625 L 189.591,62.437 L 191.931,62.437 L 200.935,75.926 L 200.935,62.437 L 203.123,62.437 L 203.123,79.625 L 200.783,79.625 L 191.779,66.136 L 191.779,79.625 L 189.591,79.625 z "
   id="path5" />
	<path
   d="M 207.032,79.625 L 207.032,62.437 L 209.313,62.437 L 209.313,69.5 L 218.204,69.5 L 218.204,62.437 L 220.485,62.437 L 220.485,79.625 L 218.204,79.625 L 218.204,71.531 L 209.313,71.531 L 209.313,79.625 L 207.032,79.625 z "
   id="path7" />
</g>
<g
   id="g9"
   transform="matrix(0.95,0,0,0.95,7.05595,2.49305)">
	<path
   d="M 222.955,80.718 L 224.533,80.499 C 224.715,81.395 225.025,82.041 225.461,82.437 C 225.897,82.832 226.433,83.03 227.068,83.03 C 227.82,83.03 228.454,82.772 228.966,82.258 C 229.479,81.742 229.736,81.104 229.736,80.342 C 229.736,79.616 229.498,79.018 229.019,78.546 C 228.542,78.074 227.936,77.839 227.201,77.839 C 226.9,77.839 226.525,77.898 226.078,78.015 L 226.256,76.624 C 226.361,76.636 226.447,76.642 226.512,76.642 C 227.186,76.642 227.793,76.467 228.332,76.116 C 228.872,75.765 229.143,75.224 229.143,74.493 C 229.143,73.914 228.946,73.434 228.551,73.055 C 228.157,72.675 227.649,72.485 227.026,72.485 C 226.409,72.485 225.895,72.679 225.483,73.067 C 225.071,73.455 224.807,74.037 224.69,74.813 L 223.112,74.532 C 223.305,73.47 223.745,72.647 224.432,72.064 C 225.118,71.48 225.971,71.188 226.993,71.188 C 227.696,71.188 228.345,71.338 228.937,71.64 C 229.53,71.941 229.983,72.352 230.297,72.872 C 230.61,73.393 230.768,73.945 230.768,74.53 C 230.768,75.086 230.618,75.592 230.319,76.048 C 230.02,76.504 229.579,76.866 228.993,77.136 C 229.755,77.312 230.347,77.677 230.772,78.23 C 231.196,78.785 231.409,79.477 231.409,80.309 C 231.409,81.435 230.997,82.388 230.176,83.17 C 229.355,83.952 228.316,84.344 227.06,84.344 C 225.926,84.344 224.986,84.007 224.238,83.335 C 223.486,82.661 223.061,81.79 222.955,80.718 z "
   id="path11" />
</g>
<path
   d="M 197.2583,59.65835 L 189.9908,59.65835 L 192.7458,31.9193 L 193.6008,31.4443 L 194.4558,31.9193 L 197.2583,59.65835 z "
   id="polygon13" />
<path
   d="M 161.0158,13.5368 L 161.0158,11.6843 L 193.6008,30.5418 L 193.6008,31.4443 L 192.7458,31.9193 L 161.0158,13.5368 z "
   id="polygon15" />
<g
   id="g17"
   transform="matrix(0.95,0,0,0.95,7.05595,2.49305)">
	<path
   d="M 236.207,14.097 L 238.488,14.671 C 238.011,16.541 237.154,17.967 235.918,18.948 C 234.682,19.929 233.169,20.421 231.382,20.421 C 229.532,20.421 228.028,20.044 226.869,19.289 C 225.709,18.535 224.828,17.441 224.223,16.011 C 223.619,14.58 223.317,13.043 223.317,11.402 C 223.317,9.612 223.658,8.049 224.34,6.716 C 225.022,5.383 225.994,4.369 227.254,3.678 C 228.514,2.987 229.9,2.64 231.414,2.64 C 233.131,2.64 234.574,3.078 235.744,3.954 C 236.916,4.831 237.73,6.062 238.191,7.651 L 235.957,8.178 C 235.559,6.928 234.981,6.018 234.225,5.448 C 233.469,4.878 232.516,4.593 231.37,4.593 C 230.052,4.593 228.95,4.909 228.065,5.542 C 227.179,6.175 226.557,7.024 226.198,8.091 C 225.84,9.157 225.661,10.257 225.661,11.39 C 225.661,12.851 225.873,14.126 226.298,15.216 C 226.723,16.306 227.384,17.12 228.28,17.659 C 229.176,18.198 230.147,18.468 231.191,18.468 C 232.462,18.468 233.538,18.101 234.419,17.366 C 235.3,16.631 235.895,15.542 236.207,14.097 z "
   id="path19" />
	<path
   d="M 240.602,11.759 C 240.602,8.906 241.368,6.674 242.899,5.061 C 244.432,3.447 246.409,2.64 248.833,2.64 C 250.419,2.64 251.85,3.019 253.124,3.777 C 254.397,4.536 255.368,5.592 256.037,6.948 C 256.706,8.304 257.04,9.842 257.04,11.56 C 257.04,13.303 256.688,14.862 255.984,16.237 C 255.28,17.612 254.284,18.654 252.995,19.361 C 251.704,20.068 250.313,20.422 248.821,20.422 C 247.202,20.422 245.757,20.031 244.483,19.25 C 243.208,18.469 242.243,17.401 241.587,16.05 C 240.931,14.699 240.602,13.268 240.602,11.759 z M 242.945,11.789 C 242.945,13.859 243.502,15.49 244.615,16.682 C 245.73,17.873 247.127,18.469 248.808,18.469 C 250.519,18.469 251.929,17.867 253.035,16.664 C 254.141,15.461 254.695,13.754 254.695,11.543 C 254.695,10.145 254.459,8.924 253.985,7.881 C 253.511,6.838 252.82,6.029 251.91,5.455 C 250.999,4.881 249.976,4.594 248.844,4.594 C 247.233,4.594 245.848,5.147 244.686,6.252 C 243.525,7.357 242.945,9.203 242.945,11.789 z "
   id="path21" />
	<path
   d="M 259.27,11.759 C 259.27,8.906 260.036,6.674 261.567,5.061 C 263.1,3.447 265.077,2.64 267.501,2.64 C 269.087,2.64 270.518,3.019 271.792,3.777 C 273.065,4.536 274.036,5.592 274.705,6.948 C 275.374,8.304 275.708,9.842 275.708,11.56 C 275.708,13.303 275.356,14.862 274.652,16.237 C 273.948,17.612 272.952,18.654 271.663,19.361 C 270.372,20.068 268.981,20.422 267.489,20.422 C 265.87,20.422 264.425,20.031 263.151,19.25 C 261.876,18.469 260.911,17.401 260.255,16.05 C 259.599,14.699 259.27,13.268 259.27,11.759 z M 261.613,11.789 C 261.613,13.859 262.17,15.49 263.283,16.682 C 264.398,17.873 265.795,18.469 267.476,18.469 C 269.187,18.469 270.597,17.867 271.703,16.664 C 272.809,15.461 273.363,13.754 273.363,11.543 C 273.363,10.145 273.127,8.924 272.653,7.881 C 272.179,6.838 271.488,6.029 270.578,5.455 C 269.667,4.881 268.644,4.594 267.512,4.594 C 265.901,4.594 264.516,5.147 263.354,6.252 C 262.193,7.357 261.613,9.203 261.613,11.789 z "
   id="path23" />
</g>
<path
   d="M 217.0658,17.0043 L 217.87235,18.3818 L 194.4558,31.9193 L 193.6008,31.4443 L 193.6008,30.5418 L 217.0658,17.0043 z "
   id="polygon25" />
<path
   style="fill:none;stroke:#000000;stroke-width:1.28250003"
   d="M 266.9408,3.1343 L 274.5408,3.1343 M 224.75985,60.4668 L 232.35985,60.4668 M 228.55985,56.6668 L 228.55985,64.2668"
   id="path27" />
<path
   d="M 129.1908,31.9193 L 128.38235,31.4443 L 128.38235,30.5418 L 161.0158,11.6843 L 161.0158,13.5368 L 129.1908,31.9193 z "
   id="polygon29" />
<path
   d="M 95.7508,13.5368 L 95.7508,11.6843 L 128.38235,30.5418 L 128.38235,31.4443 L 127.5758,31.9193 L 95.7508,13.5368 z "
   id="polygon31" />
<path
   d="M 95.3233,19.8543 L 96.1308,18.4293 L 123.1108,34.0093 L 122.3033,35.4343 L 95.3233,19.8543 z "
   id="polygon33" />
<path
   d="M 63.8783,31.9193 L 62.2633,30.9693 L 95.7508,11.6843 L 95.7508,13.5368 L 63.8783,31.9193 z "
   id="polygon35" />
<path
   d="M 63.8783,68.68335 L 63.06985,69.15835 L 62.2633,68.68335 L 62.2633,30.9693 L 63.8783,31.9193 L 63.8783,68.68335 z "
   id="polygon37" />
<path
   d="M 67.915804,34.721799 L 69.530804,34.721799 L 69.530804,65.881798 L 67.915804,65.881798 L 67.915804,34.721799 z "
   id="rect39" />
<path
   d="M 95.7508,87.0668 L 95.7508,88.9193 L 63.06985,70.10835 L 63.06985,69.15835 L 63.8783,68.68335 L 95.7508,87.0668 z "
   id="polygon41" />
<path
   d="M 127.5758,68.68335 L 129.1908,69.63335 L 95.7508,88.9193 L 95.7508,87.0668 L 127.5758,68.68335 z "
   id="polygon43" />
<path
   d="M 122.3033,65.1693 L 123.1108,66.5943 L 96.1308,82.1743 L 95.3233,80.79585 L 122.3033,65.1693 z "
   id="polygon45" />
<path
   d="M 127.5758,31.9193 L 128.38235,31.4443 L 129.1908,31.9193 L 129.1908,69.63335 L 127.5758,68.68335 L 127.5758,31.9193 z "
   id="polygon47" />
<g
   id="g49"
   transform="matrix(0.95,0,0,0.95,7.05595,2.49305)">
	<path
   d="M 0,99.424 L 0,82.237 L 2.281,82.237 L 2.281,89.3 L 11.172,89.3 L 11.172,82.237 L 13.453,82.237 L 13.453,99.425 L 11.172,99.425 L 11.172,91.331 L 2.281,91.331 L 2.281,99.425 L 0,99.425 L 0,99.424 z "
   id="path51" />
	<path
   d="M 16.551,91.059 C 16.551,88.206 17.317,85.974 18.849,84.361 C 20.381,82.747 22.359,81.94 24.782,81.94 C 26.369,81.94 27.799,82.319 29.073,83.077 C 30.347,83.836 31.318,84.892 31.987,86.248 C 32.656,87.604 32.989,89.142 32.989,90.86 C 32.989,92.603 32.637,94.162 31.934,95.537 C 31.231,96.912 30.234,97.954 28.944,98.661 C 27.654,99.368 26.263,99.722 24.77,99.722 C 23.152,99.722 21.706,99.331 20.432,98.55 C 19.158,97.769 18.193,96.701 17.536,95.35 C 16.879,93.999 16.551,92.568 16.551,91.059 z M 18.895,91.088 C 18.895,93.158 19.452,94.789 20.566,95.981 C 21.68,97.173 23.078,97.768 24.758,97.768 C 26.47,97.768 27.879,97.166 28.986,95.963 C 30.092,94.76 30.645,93.053 30.645,90.842 C 30.645,89.444 30.409,88.223 29.936,87.18 C 29.463,86.137 28.771,85.328 27.86,84.754 C 26.949,84.18 25.927,83.893 24.794,83.893 C 23.184,83.893 21.798,84.446 20.637,85.551 C 19.476,86.656 18.895,88.502 18.895,91.088 z "
   id="path53" />
</g>
<path
   d="M 39.5108,83.6943 L 38.7033,82.3168 L 62.2633,68.68335 L 63.06985,69.15835 L 63.06985,70.10835 L 39.5108,83.6943 z "
   id="polygon55" />
</svg>